:FULLY-SPECIFIED
:FORCE-ALL-JOINTS-BE-3DOF
:DEGREES
204
root -2.89302 16.3343 -36.1203 3.76877 0.668327 -2.92343
lfemur -23.901 6.726 -8.17323
ltibia 48.6747 -0 0
lfoot -23.8116 0.398047 2.66537e-06
ltoes -9.81387 0 0
rfemur -23.8455 -7.56507 14.6553
rtibia 50.7507 -0 0
rfoot -27.6451 2.06524 -1.84415e-05
rtoes -8.29342 0 0
lowerback 7.2915 1.95382 -1.69576
upperback -3.7482 2.53873 1.30337
thorax -8.18589 1.37383 1.96434
lowerneck -3.43411 -3.91954 -6.54039
upperneck 6.9026 -5.29182 6.02514
head 3.25353 -2.60508 2.95822
lclavicle 0 0 0
lhumerus -26.5507 -1.88813 88.7928
lradius 24.3171 -0 0
lwrist -31.3749 0 0
lhand -28.2301 30.1133 8.9385e-07
lfingers 0 0 0
lthumb -1.60819 60.087 8.65869e-07
rclavicle 0 0 0
rhumerus -32.2221 2.00169 -79.9358
rradius 30.4528 -0 0
rwrist 3.1256 0 0
rhand -20.0831 -26.8208 -3.0722e-07
rfingers 0 0 0
rthumb 6.25956 -56.7083 -2.89892e-07
205
root -2.89323 16.3341 -36.1202 3.7687 0.668911 -2.9243
lfemur -23.9043 6.72822 -8.17101
ltibia 48.6822 -0 0
lfoot -23.8155 0.397794 6.79319e-07
ltoes -9.81675 0 0
rfemur -23.8483 -7.56857 14.6571
rtibia 50.758 -0 0
rfoot -27.6494 2.06683 -4.70016e-06
rtoes -8.29494 0 0
lowerback 0 0 0
upperback -3.74785 2.53868 1.30355
thorax -8.18543 1.3738 1.9645
lowerneck -3.43554 -3.91984 -6.54018
upperneck 6.90462 -5.29222 6.02503
head 3.25451 -2.60526 2.95812
lclavicle 0 0 0
lhumerus -26.5494 -1.88954 88.7937
lradius 24.3177 -0 0
lwrist -31.3742 0 0
lhand -28.2297 30.1142 2.27814e-07
lfingers 0 0 0
lthumb -1.60782 60.0879 2.20683e-07
rclavicle 0 0 0
rhumerus -32.2202 2.00323 -79.9379
rradius 30.455 -0 0
rwrist 3.12452 0 0
rhand -20.0828 -26.8212 -7.83007e-08
rfingers 0 0 0
rthumb 6.25985 -56.7087 -7.38844e-08
206
root -2.90138 16.305 -36.1106 3.76868 0.66911 -2.9246
lfemur -23.9054 6.72898 -8.17025
ltibia 48.6848 0 0
lfoot -23.8168 0.397708 0
ltoes -9.81773 0 0
rfemur -23.8493 -7.56976 14.6577
rtibia 50.7605 0 0
rfoot -27.6509 2.06737 0
rtoes -8.29546 0 0
lowerback 7.29131 1.95374 -1.69565
upperback -3.74773 2.53866 1.30361
thorax -8.18527 1.37379 1.96455
lowerneck -3.43602 -3.91994 -6.54011
upperneck 6.9053 -5.29236 6.02499
head 3.25484 -2.60532 2.95808
lclavicle -1.30647e-14 4.96962e-16 0
lhumerus -26.5489 -1.89002 88.794
lradius 24.3179 0 0
lwrist -31.374 0 0
lhand -28.2296 30.1145 0
lfingers 7.12502 0 0
lthumb -1.6077 60.0882 0
rclavicle -1.30647e-14 4.96962e-16 0
rhumerus -32.2196 2.00376 -79.9386
rradius 30.4557 0 0
rwrist 3.12415 0 0
rhand -20.0827 -26.8213 0
rfingers 7.12502 0 0
rthumb 6.25995 -56.7088 0
207
root -2.90207 16.303 -36.1097 3.76438 0.666778 -2.92231
lfemur -23.908 6.73067 -8.1723
ltibia 48.7021 -0 0
lfoot -23.8261 0.401333 -2.16565e-05
ltoes -9.82523 0 0
rfemur -23.8539 -7.57541 14.653
rtibia 50.7789 -0 0
rfoot -27.6603 2.07234 -3.01238e-05
rtoes -8.29504 0 0
lowerback 7.2969 1.95366 -1.6964
upperback -3.74552 2.53846 1.30452
thorax -8.18622 1.37374 1.96582
lowerneck -3.46747 -3.8888 -6.50634
upperneck 6.93151 -5.24915 5.99082
head 3.26514 -2.58366 2.94249
lclavicle 0 0 0
lhumerus -26.5524 -1.89272 88.796
lradius 24.3203 -0 0
lwrist -31.3643 0 0
lhand -28.2297 30.1185 -1.9054e-07
lfingers 0 0 0
lthumb -1.60777 60.0922 -1.83897e-07
rclavicle 0 0 0
rhumerus -32.2172 2.00086 -79.9308
rradius 30.4528 -0 0
rwrist 3.13095 0 0
rhand -20.0781 -26.8156 1.70098e-05
rfingers 0 0 0
rthumb 6.26443 -56.703 1.68158e-05
208
root -2.90295 16.3013 -36.1083 3.75936 0.664055 -2.91964
lfemur -23.911 6.73264 -8.1747
ltibia 48.7222 -0 0
lfoot -23.8369 0.405569 -4.62146e-05
ltoes -9.834 0 0
rfemur -23.8594 -7.58201 14.6476
rtibia 50.8004 -0 0
rfoot -27.6713 2.07814 -6.42838e-05
rtoes -8.29455 0 0
lowerback 7.30343 1.95357 -1.69727
upperback -3.74294 2.53823 1.30557
thorax -8.18732 1.37368 1.9673
lowerneck -3.50419 -3.85239 -6.46691
upperneck 6.96209 -5.19865 5.95092
head 3.27716 -2.55835 2.92428
lclavicle 0 0 0
lhumerus -26.5566 -1.89588 88.7984
lradius 24.323 -0 0
lwrist -31.3529 0 0
lhand -28.2298 30.1232 -4.0661e-07
lfingers 0 0 0
lthumb -1.60785 60.0969 -3.92433e-07
rclavicle 0 0 0
rhumerus -32.2143 1.99748 -79.9216
rradius 30.4494 -0 0
rwrist 3.13888 0 0
rhand -20.0726 -26.809 3.62986e-05
rfingers 0 0 0
rthumb 6.26966 -56.6962 3.58846e-05
209
root -2.90402 16.2999 -36.1065 3.75366 0.660962 -2.91661
lfemur -23.9145 6.73489 -8.17743
ltibia 48.7451 -0 0
lfoot -23.8492 0.410379 -7.31339e-05
ltoes -9.84396 0 0
rfemur -23.8655 -7.5895 14.6413
rtibia 50.8248 -0 0
rfoot -27.6838 2.08473 -0.000101728
rtoes -8.294 0 0
lowerback 7.31084 1.95347 -1.69826
upperback -3.74 2.53797 1.30677
thorax -8.18858 1.3736 1.96899
lowerneck -3.54586 -3.81101 -6.42216
upperneck 6.99678 -5.14128 5.90564
head 3.29081 -2.5296 2.90361
lclavicle 0 0 0
lhumerus -26.5613 -1.89946 88.801
lradius 24.3262 -0 0
lwrist -31.3399 0 0
lhand -28.2299 30.1286 -6.43454e-07
lfingers 0 0 0
lthumb -1.60795 60.1023 -6.21019e-07
rclavicle 0 0 0
rhumerus -32.2111 1.99363 -79.9112
rradius 30.4456 -0 0
rwrist 3.1479 0 0
rhand -20.0665 -26.8014 5.7442e-05
rfingers 0 0 0
rthumb 6.27561 -56.6884 5.67868e-05
210
root -2.90526 16.2988 -36.1043 3.74731 0.657522 -2.91323
lfemur -23.9183 6.73738 -8.18046
ltibia 48.7706 -0 0
lfoot -23.8629 0.415728 -0.000101858
ltoes -9.85503 0 0
rfemur -23.8724 -7.59784 14.6344
rtibia 50.852 -0 0
rfoot -27.6977 2.09206 -0.000141683
rtoes -8.29338 0 0
lowerback 7.31909 1.95335 -1.69936
upperback -3.73674 2.53768 1.30811
thorax -8.18997 1.37353 1.97086
lowerneck -3.59216 -3.76496 -6.37243
upperneck 7.0353 -5.07744 5.85534
head 3.30597 -2.49762 2.88063
lclavicle 0 0 0
lhumerus -26.5665 -1.90345 88.804
lradius 24.3297 -0 0
lwrist -31.3256 0 0
lhand -28.23 30.1345 -8.96179e-07
lfingers 0 0 0
lthumb -1.60805 60.1082 -8.64933e-07
rclavicle 0 0 0
rhumerus -32.2075 1.98936 -79.8997
rradius 30.4413 -0 0
rwrist 3.15793 0 0
rhand -20.0596 -26.793 8.00031e-05
rfingers 0 0 0
rthumb 6.28222 -56.6798 7.90906e-05
211
root -2.90666 16.2979 -36.1017 3.74037 0.653759 -2.90954
lfemur -23.9226 6.74011 -8.18378
ltibia 48.7985 -0 0
lfoot -23.8779 0.421581 -0.000131825
ltoes -9.86715 0 0
rfemur -23.8799 -7.60696 14.6269
rtibia 50.8817 -0 0
rfoot -27.7129 2.10008 -0.000183366
rtoes -8.29271 0 0
lowerback 7.32811 1.95323 -1.70056
upperback -3.73317 2.53736 1.30957
thorax -8.1915 1.37344 1.97291
lowerneck -3.64277 -3.71452 -6.31807
upperneck 7.07737 -5.00754 5.80035
head 3.32255 -2.46262 2.8555
lclavicle 0 0 0
lhumerus -26.5723 -1.90781 88.8073
lradius 24.3335 -0 0
lwrist -31.3098 0 0
lhand -28.2301 30.141 -1.15983e-06
lfingers 0 0 0
lthumb -1.60817 60.1147 -1.11939e-06
rclavicle 0 0 0
rhumerus -32.2036 1.98468 -79.8871
rradius 30.4367 -0 0
rwrist 3.1689 0 0
rhand -20.0521 -26.7838 0.00010354
rfingers 0 0 0
rthumb 6.28945 -56.6704 0.000102359
212
root -2.9082 16.2973 -36.0988 3.73288 0.649696 -2.90555
lfemur -23.9271 6.74306 -8.18736
ltibia 48.8286 -0 0
lfoot -23.894 0.427903 -0.000162472
ltoes -9.88023 0 0
rfemur -23.888 -7.61681 14.6187
rtibia 50.9138 -0 0
rfoot -27.7293 2.10874 -0.000225996
rtoes -8.29198 0 0
lowerback 7.33786 1.95309 -1.70186
upperback -3.72932 2.53702 1.31115
thorax -8.19315 1.37335 1.97513
lowerneck -3.69738 -3.65999 -6.2594
upperneck 7.12274 -4.93201 5.74103
head 3.34043 -2.42482 2.82836
lclavicle 0 0 0
lhumerus -26.5784 -1.91252 88.8108
lradius 24.3376 -0 0
lwrist -31.2928 0 0
lhand -28.2302 30.148 -1.42947e-06
lfingers 0 0 0
lthumb -1.60829 60.1217 -1.37963e-06
rclavicle 0 0 0
rhumerus -32.1994 1.97962 -79.8734
rradius 30.4316 -0 0
rwrist 3.18075 0 0
rhand -20.0441 -26.7739 0.000127611
rfingers 0 0 0
rthumb 6.29726 -56.6603 0.000126155
213
root -2.90989 16.2969 -36.0955 3.72487 0.645354 -2.90129
lfemur -23.9319 6.7462 -8.19119
ltibia 48.8608 -0 0
lfoot -23.9113 0.434658 -0.000193246
ltoes -9.89422 0 0
rfemur -23.8967 -7.62734 14.61
rtibia 50.9481 -0 0
rfoot -27.7468 2.118 -0.000268803
rtoes -8.2912 0 0
lowerback 7.34827 1.95295 -1.70325
upperback -3.7252 2.53665 1.31283
thorax -8.19491 1.37325 1.97749
lowerneck -3.75566 -3.60167 -6.19678
upperneck 7.17112 -4.85126 5.67772
head 3.35952 -2.38441 2.79939
lclavicle 0 0 0
lhumerus -26.5851 -1.91755 88.8146
lradius 24.3421 -0 0
lwrist -31.2747 0 0
lhand -28.2303 30.1555 -1.70024e-06
lfingers 0 0 0
lthumb -1.60842 60.1292 -1.64096e-06
rclavicle 0 0 0
rhumerus -32.1948 1.97422 -79.8588
rradius 30.4263 -0 0
rwrist 3.19341 0 0
rhand -20.0354 -26.7633 0.000151783
rfingers 0 0 0
rthumb 6.30561 -56.6494 0.000150051
